<svg id="그룹_51" data-name="그룹 51" xmlns="http://www.w3.org/2000/svg" width="20" height="20" viewBox="0 0 20 20">
  <path id="패스_70" data-name="패스 70" d="M12.306,4a8.306,8.306,0,1,0,8.306,8.306A8.3,8.3,0,0,0,12.306,4Zm0,15.366a7.06,7.06,0,1,1,7.06-7.06A7.06,7.06,0,0,1,12.306,19.366Zm0-6.645c-2.525,0-4.568,1.437-4.568,2.907s2.043,2.907,4.568,2.907,4.568-1.437,4.568-2.907S14.831,12.721,12.306,12.721Zm0-.415A2.492,2.492,0,1,0,9.814,9.814,2.494,2.494,0,0,0,12.306,12.306Z" transform="translate(-2.306 -2.306)" fill="#fff"/>
  <path id="패스_71" data-name="패스 71" d="M0,0H20V20H0Z" fill="none"/>
</svg>
