<svg xmlns="http://www.w3.org/2000/svg" width="28" height="28" viewBox="0 0 28 28">
  <g id="그룹_12571" data-name="그룹 12571" transform="translate(-786 -7850)">
    <path id="패스_90704" data-name="패스 90704" d="M14.433.062A7.142,7.142,0,0,1,16.8.513a4.385,4.385,0,0,1,1.629,1.063A4.385,4.385,0,0,1,19.487,3.2a7.164,7.164,0,0,1,.45,2.362C19.992,6.825,20,7.271,20,10s-.008,3.175-.063,4.433a7.164,7.164,0,0,1-.45,2.363A4.721,4.721,0,0,1,16.8,19.487a7.164,7.164,0,0,1-2.363.45c-1.258.054-1.7.063-4.433.063s-3.175-.008-4.433-.063a7.164,7.164,0,0,1-2.362-.45,4.385,4.385,0,0,1-1.629-1.062A4.385,4.385,0,0,1,.513,16.8a7.164,7.164,0,0,1-.45-2.363C.008,13.175,0,12.729,0,10S.008,6.825.062,5.567A7.164,7.164,0,0,1,.513,3.2,4.385,4.385,0,0,1,1.575,1.575,4.385,4.385,0,0,1,3.2.513,7.142,7.142,0,0,1,5.567.062C6.825.008,7.271,0,10,0S13.175.008,14.433.062ZM10,2.221c-2.7,0-3.112.008-4.329.063a4.961,4.961,0,0,0-1.662.3,2.232,2.232,0,0,0-.862.563,2.232,2.232,0,0,0-.563.862,4.961,4.961,0,0,0-.3,1.662C2.229,6.888,2.221,7.3,2.221,10s.008,3.113.063,4.329a4.961,4.961,0,0,0,.3,1.663,2.232,2.232,0,0,0,.563.863,2.232,2.232,0,0,0,.862.562,4.961,4.961,0,0,0,1.662.3c1.217.054,1.629.063,4.329.063s3.113-.008,4.329-.062a4.961,4.961,0,0,0,1.663-.3,2.5,2.5,0,0,0,1.425-1.425,4.961,4.961,0,0,0,.3-1.663c.054-1.217.063-1.629.063-4.329s-.008-3.112-.062-4.329a4.961,4.961,0,0,0-.3-1.662,2.232,2.232,0,0,0-.562-.862,2.232,2.232,0,0,0-.863-.563,4.961,4.961,0,0,0-1.663-.3C13.113,2.229,12.7,2.221,10,2.221Zm0,12.962A5.183,5.183,0,1,1,15.183,10,5.184,5.184,0,0,1,10,15.183Zm0-2.221A2.962,2.962,0,1,0,7.037,10,2.961,2.961,0,0,0,10,12.962Zm5.183-7.037A1.11,1.11,0,1,1,16.3,4.817,1.108,1.108,0,0,1,15.183,5.925Z" transform="translate(790 7854)" fill="#fff"/>
    <rect id="사각형_4533" data-name="사각형 4533" width="28" height="28" transform="translate(786 7850)" fill="none"/>
  </g>
</svg>
