<svg xmlns="http://www.w3.org/2000/svg" width="44" height="44" viewBox="0 0 44 44">
  <path id="Forma_1" data-name="Forma 1" d="M22.7,40.957A3.048,3.048,0,0,1,25.042,38V27.447H21.063a.7.7,0,0,1,0-1.405h4.682a.7.7,0,0,1,.7.7V38a3.042,3.042,0,1,1-3.745,2.96Zm1.4,0a1.638,1.638,0,1,0,1.639-1.638A1.64,1.64,0,0,0,24.106,40.957Zm-8.893,0A3.048,3.048,0,0,1,17.553,38V27.447H13.574a.7.7,0,1,1,0-1.405h4.681a.7.7,0,0,1,.7.7V38a3.042,3.042,0,1,1-3.745,2.96Zm1.4,0a1.638,1.638,0,1,0,1.638-1.638A1.64,1.64,0,0,0,16.617,40.957Zm18.806-3.979H33.234a.7.7,0,0,1-.7-.7v-8.83H28.553a.7.7,0,1,1,0-1.405h4.681a.7.7,0,0,1,.7.7v8.829h1.487a3.043,3.043,0,1,1,0,1.4Zm1.321-.7a1.638,1.638,0,1,0,1.639-1.638A1.64,1.64,0,0,0,36.745,36.277Zm-34.171,0a3.042,3.042,0,0,1,6-.7h1.487V27.447H8.432A8.433,8.433,0,0,1,6.308,10.853a6.081,6.081,0,0,1,5.93-4.785,6.017,6.017,0,0,1,1.819.278,13.292,13.292,0,0,1,24.609,6.289,7.575,7.575,0,0,1-2.242,14.811h-.382a.7.7,0,1,1,0-1.405h.382a6.171,6.171,0,0,0,1.4-12.181.7.7,0,0,1-.544-.678,11.888,11.888,0,0,0-22.3-5.633.7.7,0,0,1-.893.306,4.614,4.614,0,0,0-1.849-.383,4.67,4.67,0,0,0-4.621,4.051.7.7,0,0,1-.56.6,7.028,7.028,0,0,0,1.375,13.92h2.334a.7.7,0,0,1,.7.7v9.532a.7.7,0,0,1-.7.7H8.577a3.042,3.042,0,0,1-6-.7Zm1.4,0a1.638,1.638,0,1,0,1.639-1.638A1.64,1.64,0,0,0,3.978,36.277ZM34.235,13.911a.7.7,0,0,1-.7-.7,8.043,8.043,0,0,0-.553-2.866.7.7,0,0,1,1.308-.512,9.458,9.458,0,0,1,.649,3.364.7.7,0,0,1-.7.708ZM31.668,8.122A8.123,8.123,0,0,0,25.391,5.15a.7.7,0,0,1,0-1.405,9.525,9.525,0,0,1,7.36,3.483.7.7,0,1,1-1.083.894Z" fill="#ffba00"/>
</svg>
