<svg width="106" height="94" viewBox="0 0 106 94" fill="none" xmlns="http://www.w3.org/2000/svg">
<path d="M30.7402 24.6307C14.3549 27.7429 1.27734 34.488 1.27734 44.8788M1.27734 44.8788C1.27734 57.7467 17.5349 62.5483 21.4812 63.5899C22.0431 63.7424 22.4263 64.2378 22.4263 64.8221V91.6629C11.4559 91.6629 1.27734 82.8091 1.27734 71.8975V44.8788Z" stroke="white" stroke-width="2" stroke-miterlimit="10" stroke-linecap="round"/>
<path d="M74.7617 24.6307C91.1598 27.7302 104.276 34.488 104.276 44.8915M104.276 44.8915C104.276 57.7594 88.0181 62.561 84.0718 63.6026C83.5099 63.7551 83.1268 64.2505 83.1268 64.8348V91.6756C94.0971 91.6756 104.276 82.8218 104.276 71.9102V44.8915Z" stroke="white" stroke-width="2" stroke-linecap="round" stroke-linejoin="round"/>
<path d="M12.4902 60.617C12.4902 60.617 48.5047 42.5792 93.0502 60.617" stroke="white" stroke-width="2" stroke-miterlimit="10"/>
<path d="M36.5221 73.0276H41.5608L45.1243 85.1271H45.2652L48.8287 73.0276H53.8674L48.232 90H42.1575L36.5221 73.0276ZM69.6139 90H64.7493L61.741 84.3398H60.0006V90H55.5338V73.0276H62.7769C66.5559 73.0276 69.0421 75.1823 69.0421 78.7624C69.0421 81.116 67.9647 82.7735 66.1415 83.6354L69.6139 90ZM61.741 76.6077H60.0006V80.8591H61.741C63.415 80.8591 64.3929 80.2459 64.3929 78.7624C64.3929 77.2707 63.415 76.6077 61.741 76.6077Z" fill="white"/>
<path d="M36.5508 12.0547V30.6896L52.7701 40.0007L68.9893 30.6896V12.0547L52.7701 2.73096L36.5508 12.0547Z" stroke="white" stroke-width="2" stroke-miterlimit="10"/>
<path d="M36.5508 12.0552L52.7701 21.3663L68.9893 12.0552" stroke="white" stroke-width="2" stroke-miterlimit="10"/>
<path d="M52.7695 21.3657V40.0006" stroke="white" stroke-width="2" stroke-miterlimit="10"/>
</svg>
