<svg id="쓰레기통" xmlns="http://www.w3.org/2000/svg" width="24" height="24" viewBox="0 0 24 24">
  <path id="패스_79" data-name="패스 79" d="M9,6a2,2,0,0,1,2-2h6a2,2,0,0,1,2,2V8h4a1,1,0,1,1,0,2h-1.07l-.865,12.145a2,2,0,0,1-2,1.861H8.932a2,2,0,0,1-2-1.861L6.071,10H5A1,1,0,0,1,5,8H9Zm2,2h6V6H11ZM8.077,10l.855,12.005H19.076L19.932,10ZM12,12a1,1,0,0,1,1,1v6a1,1,0,1,1-2,0V13A1,1,0,0,1,12,12Zm4,0a1,1,0,0,1,1,1v6a1,1,0,1,1-2,0V13A1,1,0,0,1,16.005,12Z" transform="translate(-2.004 -2.004)" fill="#0d0d0d"/>
  <path id="패스_80" data-name="패스 80" d="M0,0H24V24H0Z" fill="none"/>
</svg>
