<svg xmlns="http://www.w3.org/2000/svg" width="50" height="50" viewBox="0 0 50 50">
  <g id="Icon" transform="translate(-0.007 -0.422)">
    <circle id="Ellipse_1" data-name="Ellipse 1" cx="25" cy="25" r="25" transform="translate(0.007 0.422)" fill="#ffba00"/>
    <path id="Forma_1_copy" data-name="Forma 1 copy" d="M.436,20H.4a.433.433,0,0,1-.4-.426V7.179a.572.572,0,0,1,.323-.405L3.665,4.4V1.852A.433.433,0,0,1,4.1,1.427H7.863L9.78.065a.482.482,0,0,1,.482,0l1.916,1.362H15.94a.433.433,0,0,1,.436.425V4.434l3.3,2.336c.16.118.323.278.323.4V19.488a.453.453,0,0,1-.44.512Zm1.182-.814h16.8l-7.175-5.6-.985.7a.382.382,0,0,1-.524,0l-.985-.7Zm-.784-.429,7.217-5.671L.835,7.94Zm11.117-5.671,7.218,5.637V7.94ZM4.5,9.568,10,13.479l5.5-3.911V2.277H4.5ZM1.136,7.179l2.533,1.8v-3.6Zm15.24,1.767,2.47-1.754L16.376,5.42ZM9.23,1.423h1.54L10,.87ZM7.075,10.369V9.561h5.891v.808Zm0-2.6V6.963h5.891v.808Zm0-2.6V4.365h5.891v.807Z" transform="translate(15.007 15.422)"/>
  </g>
</svg>
