<svg xmlns="http://www.w3.org/2000/svg" width="44" height="44" viewBox="0 0 44 44">
  <path id="Forma_1" data-name="Forma 1" d="M4.377,43.641.356,39.6a1.225,1.225,0,0,1,0-1.726l32-32.169a1.208,1.208,0,0,1,1.718,0L38.1,9.747a1.225,1.225,0,0,1,0,1.726L6.1,43.641a1.209,1.209,0,0,1-1.719,0ZM2.933,38.736l2.3,2.316L35.522,10.61l-2.3-2.316ZM31.8,33.281v-5.22h-5a1.177,1.177,0,1,1,0-2.352h5V21.1a1.171,1.171,0,1,1,2.34,0v4.611h5.772a1.177,1.177,0,1,1,0,2.352H34.137v5.22a1.171,1.171,0,1,1-2.34,0Zm7.018-14.105V17.871H37.033a1.176,1.176,0,1,1,0-2.351h1.782V13.83a1.171,1.171,0,1,1,2.34,0V15.52h1.629a1.176,1.176,0,1,1,0,2.351H41.155v1.305a1.171,1.171,0,1,1-2.34,0ZM15.422,16.5V11.6H10.479a1.177,1.177,0,1,1,0-2.352h4.943V4.319a1.171,1.171,0,1,1,2.34,0V9.248h5.826a1.177,1.177,0,1,1,0,2.352H17.762v4.9a1.171,1.171,0,1,1-2.34,0ZM26.339,6.567V5.329H24.867a1.176,1.176,0,1,1,0-2.351h1.473V1.221a1.171,1.171,0,1,1,2.34,0V2.978h1.94a1.176,1.176,0,1,1,0,2.351h-1.94V6.567a1.171,1.171,0,1,1-2.34,0Z" fill="#ffba00"/>
</svg>
