<svg id="create_icon" data-name="create icon" xmlns="http://www.w3.org/2000/svg" width="18" height="18" viewBox="0 0 18 18">
  <path id="패스_90719" data-name="패스 90719" d="M18,24h4.54" transform="translate(-11.27 -15)" fill="none" stroke="#000" stroke-linecap="round" stroke-linejoin="round" stroke-width="1"/>
  <path id="패스_90720" data-name="패스 90720" d="M24,18v4.54" transform="translate(-15 -11.27)" fill="none" stroke="#000" stroke-linecap="round" stroke-linejoin="round" stroke-width="1"/>
  <path id="패스_90721" data-name="패스 90721" d="M8,9.493V8.747A.749.749,0,0,1,8.747,8h.747m3.733,0H14.72m3.733,0H19.2a.749.749,0,0,1,.747.747v.747m0,3.733V14.72m0,3.733V19.2a.749.749,0,0,1-.747.747h-.747m-3.733,0H13.227m-3.733,0H8.747A.749.749,0,0,1,8,19.2v-.747M8,14.72V13.227M8,9.493" transform="translate(-4.973 -4.973)" fill="none" stroke="#000" stroke-linecap="round" stroke-linejoin="round" stroke-width="1"/>
  <path id="패스_90722" data-name="패스 90722" d="M0,0H18V18H0Z" fill="none"/>
</svg>
