<svg width="112" height="91" viewBox="0 0 112 91" fill="none" xmlns="http://www.w3.org/2000/svg">
<g clip-path="url(#clip0_8_68)">
<path d="M10.1507 57.8239C14.5518 57.8239 18.1197 54.2489 18.1197 49.8388C18.1197 45.4288 14.5518 41.8538 10.1507 41.8538C5.74949 41.8538 2.18164 45.4288 2.18164 49.8388C2.18164 54.2489 5.74949 57.8239 10.1507 57.8239Z" stroke="white" stroke-width="2" stroke-linecap="round" stroke-linejoin="round"/>
<path d="M40.7132 33.2847C45.1143 33.2847 48.6822 29.7097 48.6822 25.2997C48.6822 20.8896 45.1143 17.3146 40.7132 17.3146C36.312 17.3146 32.7441 20.8896 32.7441 25.2997C32.7441 29.7097 36.312 33.2847 40.7132 33.2847Z" stroke="white" stroke-width="2" stroke-linecap="round" stroke-linejoin="round"/>
<path d="M71.2874 49.2413C75.6885 49.2413 79.2564 45.6662 79.2564 41.2562C79.2564 36.8462 75.6885 33.2711 71.2874 33.2711C66.8862 33.2711 63.3184 36.8462 63.3184 41.2562C63.3184 45.6662 66.8862 49.2413 71.2874 49.2413Z" stroke="white" stroke-width="2" stroke-linecap="round" stroke-linejoin="round"/>
<path d="M101.862 17.3282C106.263 17.3282 109.831 13.7531 109.831 9.34311C109.831 4.93307 106.263 1.35803 101.862 1.35803C97.4604 1.35803 93.8926 4.93307 93.8926 9.34311C93.8926 13.7531 97.4604 17.3282 101.862 17.3282Z" stroke="white" stroke-width="2" stroke-linecap="round" stroke-linejoin="round"/>
<path d="M16.1543 44.6105L34.2201 29.9033" stroke="white" stroke-width="2" stroke-linecap="round" stroke-linejoin="round"/>
<path d="M47.8281 28.8848L64.4031 37.2637" stroke="white" stroke-width="2" stroke-linecap="round" stroke-linejoin="round"/>
<path d="M77.373 36.123L96.7399 15.4541" stroke="white" stroke-width="2" stroke-linecap="round" stroke-linejoin="round"/>
<path d="M1.35547 89.642H110.645" stroke="white" stroke-width="2" stroke-miterlimit="10" stroke-linecap="round"/>
<path d="M10 58L10 89" stroke="white" stroke-width="2" stroke-linecap="round" stroke-dasharray="8 8"/>
<path d="M41 34L41 89" stroke="white" stroke-width="2" stroke-linecap="round" stroke-dasharray="8 8"/>
<path d="M71 50L71 89" stroke="white" stroke-width="2" stroke-linecap="round" stroke-dasharray="8 8"/>
<path d="M102 18L102 89" stroke="white" stroke-width="2" stroke-linecap="round" stroke-dasharray="8 8"/>
</g>
<defs>
<clipPath id="clip0_8_68">
<rect width="112" height="91" fill="white"/>
</clipPath>
</defs>
</svg>
