<svg xmlns="http://www.w3.org/2000/svg" width="44" height="44" viewBox="0 0 44 44">
  <path id="Shape_1" data-name="Shape 1" d="M.733,44A.693.693,0,0,1,0,43.266V.733A.693.693,0,0,1,.733,0H43.267A.693.693,0,0,1,44,.733V43.266a.694.694,0,0,1-.733.734Zm.733-1.468H42.533V7.333H1.467Zm0-36.665H42.533v-4.4H1.467Zm37.4,34.473V38.87h1.47v1.47Zm-35.2,0V38.87H5.137v1.47Zm15.4-.74V38.131h5.869V39.6Zm.733-4.4a.693.693,0,0,1-.733-.733V32.339c-.073-.073-.147-.073-.293-.147L17.38,33.585a.709.709,0,0,1-1.027,0l-3.08-3.079a.711.711,0,0,1,0-1.027l1.394-1.393c-.074-.073-.074-.219-.147-.293H12.467a.693.693,0,0,1-.733-.733v-4.4a.693.693,0,0,1,.733-.734h2.126c.074-.073.074-.147.147-.293l-1.393-1.394a.707.707,0,0,1,0-1.026l3.08-3.08a.71.71,0,0,1,1.026,0l1.393,1.394c.074-.075.22-.075.294-.147V15.4a.693.693,0,0,1,.733-.733h4.4a.693.693,0,0,1,.733.733v2.127c.074.073.147.073.294.146l1.393-1.393a.709.709,0,0,1,1.026,0l3.08,3.08a.708.708,0,0,1,0,1.026l-1.467,1.32c.074.073.074.219.147.293h2.054a.693.693,0,0,1,.733.733v4.4a.693.693,0,0,1-.733.733H29.48c-.073.073-.073.219-.147.293l1.393,1.393a.708.708,0,0,1,0,1.026l-3.08,3.08a.708.708,0,0,1-1.026,0l-1.393-1.393c-.074.073-.22.073-.293.147v2.054a.693.693,0,0,1-.733.733Zm.513-3.813a.667.667,0,0,1,.22.514v1.833h2.934V31.9a.714.714,0,0,1,.586-.734c.147-.073.733-.293.881-.366s.293-.074.44-.147a.665.665,0,0,1,.513.22l1.247,1.247,2.054-2.054L27.94,28.82a.668.668,0,0,1-.22-.514,1.047,1.047,0,0,1,.147-.44,4.487,4.487,0,0,0,.367-.88.79.79,0,0,1,.733-.588H30.8V23.466H28.966a.715.715,0,0,1-.733-.586c-.073-.147-.293-.733-.367-.881a1.046,1.046,0,0,1-.147-.44.664.664,0,0,1,.22-.512L29.187,19.8l-2.054-2.053-1.247,1.246a.666.666,0,0,1-.513.22,4.387,4.387,0,0,1-1.687-.733.667.667,0,0,1-.219-.514V16.133H20.533v1.833a.715.715,0,0,1-.587.734c-.147.073-.733.293-.88.366a1.04,1.04,0,0,1-.44.147.669.669,0,0,1-.514-.22l-1.247-1.246L14.813,19.8l1.247,1.247a.664.664,0,0,1,.22.512,4.39,4.39,0,0,1-.733,1.687.667.667,0,0,1-.513.22H13.2V26.4h1.833a.713.713,0,0,1,.733.588c.074.147.294.733.367.88a1.037,1.037,0,0,1,.147.44.668.668,0,0,1-.22.514l-1.247,1.246,2.053,2.054,1.247-1.247a.668.668,0,0,1,.514-.22A4.375,4.375,0,0,1,20.313,31.386Zm19.285.145V30.062h1.469v1.469Zm-36.661,0V30.062H4.407v1.469ZM39.6,28.6V27.132h1.469V28.6Zm-2.93,0V27.132h1.469V28.6Zm-30.8,0V27.132H7.337V28.6Zm-2.93,0V27.132H4.407V28.6Zm16.129-3.668A2.934,2.934,0,1,1,22,27.867,2.942,2.942,0,0,1,19.066,24.932Zm1.467,0A1.467,1.467,0,1,0,22,23.466,1.47,1.47,0,0,0,20.533,24.932ZM39.6,25.67V24.2h1.469V25.67Zm-2.93,0V24.2h1.469V25.67Zm-2.93,0V24.2h1.469V25.67ZM8.8,25.67V24.2h1.469V25.67Zm-2.93,0V24.2H7.337V25.67Zm-2.93,0V24.2H4.407V25.67ZM39.6,22.74V21.271h1.469V22.74Zm-2.93,0V21.271h1.469V22.74Zm-30.8,0V21.271H7.337V22.74Zm-2.93,0V21.271H4.407V22.74ZM39.6,19.8V18.332h1.469V19.8Zm-36.661,0V18.332H4.407V19.8Zm16.13-8.061V10.271h5.869V11.74ZM38.867,11V9.532h1.47V11Zm-35.2,0V9.532H5.137V11ZM38.137,4.4V2.932h2.93V4.4ZM8.8,4.4V2.932h1.469V4.4Zm-2.93,0V2.932H7.337V4.4Zm-2.93,0V2.932H4.407V4.4Z" fill="#ffba00"/>
</svg>
