<svg xmlns="http://www.w3.org/2000/svg" width="44" height="44" viewBox="0 0 44 44">
  <path id="Forma_1" data-name="Forma 1" d="M1040.659,2102h-5.318a2.049,2.049,0,0,1-2.047-1.851l-.545-3.267a17.666,17.666,0,0,1-2.971-1.233l-2.737,1.954a2.011,2.011,0,0,1-1.264.437,2.043,2.043,0,0,1-1.455-.6l-3.76-3.761a2.05,2.05,0,0,1-.137-2.758l1.925-2.7a17.545,17.545,0,0,1-1.232-2.97l-3.315-.553a2.032,2.032,0,0,1-1.8-2.04v-5.317a2.05,2.05,0,0,1,1.851-2.047l3.267-.548a17.648,17.648,0,0,1,1.232-2.969l-1.954-2.737a2.031,2.031,0,0,1,.166-2.717l3.761-3.762a2.109,2.109,0,0,1,2.755-.137l2.7,1.926a17.619,17.619,0,0,1,2.969-1.232l.552-3.314a2.035,2.035,0,0,1,2.041-1.8h5.318a2.051,2.051,0,0,1,2.047,1.849l.546,3.269a17.693,17.693,0,0,1,2.969,1.232l2.737-1.954a2.011,2.011,0,0,1,1.263-.436,2.044,2.044,0,0,1,1.454.6l3.76,3.762a2.049,2.049,0,0,1,.14,2.755l-1.926,2.7a17.567,17.567,0,0,1,1.232,2.969l3.315.553a2.036,2.036,0,0,1,1.8,2.041v5.317a2.045,2.045,0,0,1-1.853,2.046l-3.266.546a17.573,17.573,0,0,1-1.232,2.971l1.954,2.736a2.035,2.035,0,0,1-.169,2.719l-3.76,3.76a2.107,2.107,0,0,1-2.758.137l-2.7-1.924a17.6,17.6,0,0,1-2.969,1.232l-.554,3.316A2.037,2.037,0,0,1,1040.659,2102Zm-10.933-7.935a.729.729,0,0,1,.355.093,16.191,16.191,0,0,0,3.508,1.456.728.728,0,0,1,.519.581l.626,3.763a.623.623,0,0,0,.606.589h5.318a.606.606,0,0,0,.6-.541l.635-3.811a.726.726,0,0,1,.519-.58,16.2,16.2,0,0,0,3.506-1.456.727.727,0,0,1,.778.043l3.105,2.218a.6.6,0,0,0,.845-.011l3.761-3.761a.6.6,0,0,0,.042-.808l-2.248-3.143a.727.727,0,0,1-.043-.779,16.014,16.014,0,0,0,1.454-3.5.727.727,0,0,1,.581-.52l3.764-.627a.622.622,0,0,0,.588-.606v-5.317a.607.607,0,0,0-.54-.6l-3.811-.634a.726.726,0,0,1-.581-.52,16.013,16.013,0,0,0-1.454-3.5.727.727,0,0,1,.043-.779l2.22-3.106a.617.617,0,0,0-.013-.844l-3.761-3.762a.617.617,0,0,0-.806-.042l-3.145,2.249a.725.725,0,0,1-.778.042,16.246,16.246,0,0,0-3.506-1.455.726.726,0,0,1-.519-.58l-.627-3.763a.619.619,0,0,0-.608-.591h-5.318a.6.6,0,0,0-.6.541l-.633,3.81a.726.726,0,0,1-.519.581,16.079,16.079,0,0,0-3.505,1.455.725.725,0,0,1-.779-.043l-3.108-2.22a.6.6,0,0,0-.845.013l-3.761,3.761a.6.6,0,0,0-.04.806l2.247,3.145a.728.728,0,0,1,.043.779,16.162,16.162,0,0,0-1.455,3.506.724.724,0,0,1-.58.519l-3.763.628a.616.616,0,0,0-.588.608v5.317a.6.6,0,0,0,.539.6l3.812.634a.726.726,0,0,1,.58.52,16.206,16.206,0,0,0,1.456,3.506.726.726,0,0,1-.043.778l-2.218,3.106a.615.615,0,0,0,.011.846l3.761,3.76a.613.613,0,0,0,.806.041l3.145-2.247A.731.731,0,0,1,1029.725,2094.063ZM1038,2088.7a8.7,8.7,0,1,1,8.7-8.7A8.714,8.714,0,0,1,1038,2088.7Zm0-15.954a7.25,7.25,0,1,0,7.25,7.25A7.259,7.259,0,0,0,1038,2072.747Z" transform="translate(-1016 -2057.999)" fill="#ffba00"/>
</svg>
