<svg xmlns="http://www.w3.org/2000/svg" width="28" height="28" viewBox="0 0 28 28">
  <g id="그룹_12572" data-name="그룹 12572" transform="translate(-828 -7850)">
    <path id="패스_90706" data-name="패스 90706" d="M21.955,4H5.045A1.042,1.042,0,0,0,4,5.045v16.91A1.042,1.042,0,0,0,5.045,23h9.1V15.638h-2.47v-2.85h2.47V10.65a3.458,3.458,0,0,1,3.686-3.8,19.139,19.139,0,0,1,2.214.114V9.529H18.535c-1.2,0-1.425.57-1.425,1.4v1.833h2.85l-.37,2.85H17.11V23h4.845A1.042,1.042,0,0,0,23,21.955V5.045A1.042,1.042,0,0,0,21.955,4Z" transform="translate(829 7851)" fill="#fff"/>
    <rect id="사각형_4534" data-name="사각형 4534" width="28" height="28" transform="translate(828 7850)" fill="none"/>
  </g>
</svg>
