<svg id="그룹_12557" data-name="그룹 12557" xmlns="http://www.w3.org/2000/svg" width="28" height="28" viewBox="0 0 28 28">
  <path id="패스_90708" data-name="패스 90708" d="M27.66,14.877A9.94,9.94,0,0,0,26.6,10.058a3.39,3.39,0,0,0-2.007-1.167,92.427,92.427,0,0,0-9.765-.362,90.29,90.29,0,0,0-9.73.35,3.328,3.328,0,0,0-1.7.863c-1.05.968-1.167,2.625-1.283,4.025a56.384,56.384,0,0,0,0,7.561,11.28,11.28,0,0,0,.35,2.334,3.678,3.678,0,0,0,.828,1.587,3.31,3.31,0,0,0,1.738.91,53.14,53.14,0,0,0,7.583.385c4.083.058,7.665,0,11.9-.327a3.385,3.385,0,0,0,1.785-.91,2.909,2.909,0,0,0,.712-1.167,12.2,12.2,0,0,0,.607-3.967C27.66,19.521,27.66,15.577,27.66,14.877Zm-15.47,6V13.652L19.1,17.281C17.16,18.354,14.6,19.568,12.19,20.874Z" transform="translate(-0.826 -3.549)" fill="#fff"/>
  <path id="패스_90709" data-name="패스 90709" d="M0,0H28V28H0Z" fill="none"/>
</svg>
