<svg xmlns="http://www.w3.org/2000/svg" width="44" height="44" viewBox="0 0 44 44">
  <path id="Forma_1" data-name="Forma 1" d="M17.6,44V40.271H16.132v-7.64a4.262,4.262,0,0,0-4.22-4.293H8.177L21.266,7.981V7.457a.734.734,0,1,1,1.467,0v.523L35.821,28.338H32.086a4.262,4.262,0,0,0-4.221,4.293v7.64H26.4V44Zm1.468-1.492h5.866V40.271H19.066ZM17.6,38.779h8.8V36.543H17.6ZM10.889,26.847h1.024A5.743,5.743,0,0,1,17.6,32.631v2.42h8.8v-2.42a5.743,5.743,0,0,1,5.688-5.784H33.11L22.733,10.706V23.971a2.933,2.933,0,1,1-1.467,0V10.706Zm9.645,0A1.467,1.467,0,1,0,22,25.355,1.48,1.48,0,0,0,20.533,26.847Zm17.6.746V21.627h2.173c-.009-.229-.009-.459-.026-.687a.733.733,0,1,1,1.462-.112c.02.264.02.533.03.8H44v5.966ZM39.6,26.1h2.933V23.118H39.6ZM0,27.593V21.627H2.267a.74.74,0,0,1-.042-.284c.026-.515.071-1.034.134-1.541a.734.734,0,1,1,1.455.188c-.059.471-.1.95-.125,1.43a.757.757,0,0,1-.051.208H5.866v5.966ZM1.466,26.1H4.4V23.118H1.466Zm38.385-7.993c-.108-.466-.234-.93-.374-1.38a.748.748,0,0,1,.477-.937.733.733,0,0,1,.922.484c.152.488.289.991.4,1.494a.746.746,0,0,1-.547.9.733.733,0,0,1-.881-.557ZM3.477,17.695a.748.748,0,0,1-.5-.923c.141-.495.3-.989.48-1.469a.729.729,0,0,1,.943-.437.75.75,0,0,1,.429.96c-.165.444-.314.9-.444,1.361a.729.729,0,0,1-.908.509Zm34.941-3.623c-.209-.429-.437-.851-.676-1.257a.752.752,0,0,1,.252-1.023A.727.727,0,0,1,39,12.047c.259.439.505.9.733,1.36a.752.752,0,0,1-.33,1,.719.719,0,0,1-.326.078A.734.734,0,0,1,38.418,14.071Zm-33.4-.557A.752.752,0,0,1,4.741,12.5c.248-.448.517-.892.8-1.319a.726.726,0,0,1,1.018-.2.756.756,0,0,1,.2,1.036c-.261.394-.51.805-.739,1.22a.725.725,0,0,1-1,.284Zm31.093-3.039c-.3-.367-.616-.725-.941-1.068a.754.754,0,0,1,.016-1.054.724.724,0,0,1,1.037.017c.352.367.693.755,1.017,1.152a.755.755,0,0,1-.1,1.05.732.732,0,0,1-.468.171A.723.723,0,0,1,36.113,10.476ZM7.465,9.8a.754.754,0,0,1-.044-1.053c.342-.379.7-.748,1.073-1.1a.725.725,0,0,1,1.037.037.753.753,0,0,1-.036,1.053c-.342.325-.677.667-.994,1.019A.724.724,0,0,1,7.465,9.8Zm25.6-2.3c-.373-.286-.761-.563-1.156-.822a.753.753,0,0,1-.22-1.03A.725.725,0,0,1,32.7,5.433c.425.28.846.577,1.247.885a.755.755,0,0,1,.142,1.046.723.723,0,0,1-1.027.144ZM10.677,6.756a.752.752,0,0,1,.194-1.035c.419-.292.853-.567,1.291-.823a.727.727,0,0,1,1,.278.752.752,0,0,1-.272,1.017c-.405.236-.808.492-1.2.76a.716.716,0,0,1-.412.129A.727.727,0,0,1,10.677,6.756ZM38.238,3.729h-8.8c.193.08.392.15.581.235a.751.751,0,0,1,.374.984.733.733,0,0,1-.671.443.715.715,0,0,1-.3-.064C29,5.137,28.563,4.957,28.12,4.8a.75.75,0,0,1-.446-.953.791.791,0,0,1,.069-.116h-1.6a.728.728,0,0,1-.608.339.739.739,0,0,1-.136-.013c-.155-.03-.312-.052-.468-.078V5.966H19.066V3.811a.588.588,0,0,1-.089-.082h-1.7a.733.733,0,0,1-.507.774c-.448.135-.9.29-1.335.461a.7.7,0,0,1-.262.051.734.734,0,0,1-.685-.48.754.754,0,0,1,.177-.805h-8.9a2.941,2.941,0,0,1-2.83,2.237A2.961,2.961,0,0,1,0,2.982,2.961,2.961,0,0,1,2.933,0a2.94,2.94,0,0,1,2.83,2.237h13.3V0h5.866V2.237h13.3A2.922,2.922,0,0,1,44,2.982a2.922,2.922,0,0,1-5.762.746ZM39.6,2.982a1.467,1.467,0,1,0,1.467-1.492A1.48,1.48,0,0,0,39.6,2.982Zm-19.066-.7V4.474h2.933V1.491H20.533Zm-19.067.7A1.467,1.467,0,1,0,2.933,1.491,1.481,1.481,0,0,0,1.466,2.982Z" fill="#ffba00"/>
</svg>
