<svg xmlns="http://www.w3.org/2000/svg" width="38.999" height="20" viewBox="0 0 38.999 20">
  <path id="Forma_1" data-name="Forma 1" d="M1165.543,7561.023a.852.852,0,0,1-.846-.855v-4.932h-4.368a.856.856,0,0,1,0-1.712h4.368v-1.045a.846.846,0,1,1,1.693,0v5.624l7.408-7.5a.629.629,0,0,1,.112-.092l-7.52-6.735v3.375a.845.845,0,1,1-1.691,0v-5.29c0-.015,0-.032,0-.047s0-.026,0-.038l.006-.045a.229.229,0,0,0,.008-.038c0-.013.008-.027.011-.042s.006-.026.009-.04.01-.027.015-.038a.369.369,0,0,1,.015-.04l.017-.036c.006-.014.013-.027.019-.038s.013-.023.021-.034.015-.026.025-.04a.133.133,0,0,1,.021-.026c.009-.015.021-.026.03-.04s.006-.007.01-.011a.118.118,0,0,1,.015-.015l.032-.034a.365.365,0,0,1,.03-.026.187.187,0,0,1,.03-.027l.036-.026a.307.307,0,0,0,.03-.022l.04-.023a.173.173,0,0,1,.032-.019l.04-.019a.228.228,0,0,1,.036-.015l.04-.015.038-.012.042-.011a.29.29,0,0,1,.04-.008l.042-.007.038,0a.417.417,0,0,1,.049,0l.021,0h26.644a.85.85,0,0,1,.844.855v18.29c0,.029,0,.057,0,.085,0,.012,0,.021-.006.034l-.006.047c0,.014-.008.029-.011.04a.278.278,0,0,1-.009.042c0,.013-.01.026-.013.04s-.01.025-.015.04-.009.022-.015.036l-.021.037a.137.137,0,0,1-.019.034l-.023.04-.025.034a.354.354,0,0,1-.025.032.636.636,0,0,1-.047.053s-.006.005-.008.009a.043.043,0,0,0-.01.008.654.654,0,0,1-.053.049l-.03.022a.43.43,0,0,1-.036.027.363.363,0,0,1-.036.022c-.011.008-.023.014-.036.021a.24.24,0,0,1-.036.017.345.345,0,0,1-.038.019.268.268,0,0,1-.036.013.413.413,0,0,1-.042.015l-.038.01a.287.287,0,0,1-.044.009.314.314,0,0,1-.042.008l-.04.005c-.027,0-.055,0-.083,0Zm9.45-9.2-7.408,7.494h22.558l-7.406-7.494a.827.827,0,0,1-.1-.123l-3.224,2.766a.84.84,0,0,1-1.108-.011l-3.163-2.833A.863.863,0,0,1,1174.993,7551.819Zm14.59-7.21a.863.863,0,0,1-.1,1.208l-5.569,4.778a.087.087,0,0,0,.015.013l7.408,7.5v-15.367h-23.566l11.1,9.943,9.515-8.167a.838.838,0,0,1,1.192.1Zm-34.707,14.24a.855.855,0,0,1,0-1.71h6.2a.855.855,0,0,1,0,1.71Zm0-8.08a.856.856,0,0,1,0-1.712h14.285a.856.856,0,0,1,0,1.712Zm1.48-4.717a.856.856,0,0,1,0-1.711h6.414a.856.856,0,0,1,0,1.711Z" transform="translate(-1154.032 -7541.023)"/>
</svg>
