<svg id="그룹_12560" data-name="그룹 12560" xmlns="http://www.w3.org/2000/svg" width="30" height="30" viewBox="0 0 30 30">
  <path id="패스_90710" data-name="패스 90710" d="M23.494,14.729h.094a5.535,5.535,0,0,1,3.959,1.677,5.8,5.8,0,0,1,0,8.082,5.535,5.535,0,0,1-3.959,1.677H19.853V24.26h3.735a3.82,3.82,0,0,0,0-7.625H21.879L21.648,15a4.714,4.714,0,0,0-3.978-4.048,4.631,4.631,0,0,0-4.888,2.821l-.624,1.455-1.515-.362a4.525,4.525,0,0,0-1.054-.14,4.6,4.6,0,0,0-3.3,1.4,4.835,4.835,0,0,0-1.01,5.185A4.68,4.68,0,0,0,9.589,24.26h4.664v1.906H9.589a6.444,6.444,0,0,1-4.913-2.211,6.766,6.766,0,0,1-.748-7.886,6.525,6.525,0,0,1,4.408-3.133,6.444,6.444,0,0,1,2.743.076,6.509,6.509,0,0,1,6.84-3.927A6.583,6.583,0,0,1,23.494,14.729Zm-3.111,7.345-2.457-2.5V29.934H16.068V19.64l-2.394,2.434-1.322-1.347,4.015-4.092h1.322L21.7,20.727Z" transform="translate(-1.093 -3.791)" fill-rule="evenodd"/>
  <path id="패스_90711" data-name="패스 90711" d="M0,0H30V30H0Z" fill="none"/>
</svg>
