<svg xmlns="http://www.w3.org/2000/svg" width="44" height="44" viewBox="0 0 44 44">
  <path id="Shape_1" data-name="Shape 1" d="M0,22v-.815H21.185V0H22A22,22,0,1,1,0,22ZM22,42.371a20.371,20.371,0,0,0,.815-40.725V22.815H1.646A20.4,20.4,0,0,0,22,42.371Zm-.815-3.261A.815.815,0,0,1,22,38.3,16.315,16.315,0,0,0,38.3,22a.815.815,0,0,1,1.63,0A17.946,17.946,0,0,1,22,39.926.815.815,0,0,1,21.185,39.11ZM3.264,19.556V9.779H4.892v9.777Zm13.033,0V8.151h1.628v11.4Zm-3.256,0v-7.33h1.628v7.33Zm-3.265,0V6.523H11.4V19.555Zm-3.256,0V4.076H8.148V19.555Z" fill="#ffba00"/>
</svg>
